<svg width="108" height="25" viewBox="0 0 108 25" fill="none" xmlns="http://www.w3.org/2000/svg">
<g id="Group 3">
<path id="Star 2" d="M12.3953 0.429688L15.1305 8.7798H23.9819L16.821 13.9405L19.5562 22.2906L12.3953 17.1299L5.23437 22.2906L7.9696 13.9405L0.808676 8.7798H9.66006L12.3953 0.429688Z" fill="#FF720D"/>
<path id="Star 3" d="M40.0098 0.429688L42.745 8.7798H51.5964L44.4355 13.9405L47.1707 22.2906L40.0098 17.1299L32.8489 22.2906L35.5841 13.9405L28.4232 8.7798H37.2746L40.0098 0.429688Z" fill="#FF720D"/>
<path id="Star 4" d="M67.6243 0.429688L70.3595 8.7798H79.2109L72.05 13.9405L74.7852 22.2906L67.6243 17.1299L60.4634 22.2906L63.1986 13.9405L56.0377 8.7798H64.8891L67.6243 0.429688Z" fill="#FF720D"/>
<path id="Star 5" d="M95.2388 0.429688L97.974 8.7798H106.825L99.6645 13.9405L102.4 22.2906L95.2388 17.1299L88.0779 22.2906L90.8131 13.9405L83.6522 8.7798H92.5036L95.2388 0.429688Z" fill="#D9D9D9"/>
</g>
</svg>
